<?xml version="1.0" encoding="utf-8"?>
<!-- Generator: Adobe Illustrator 21.1.0, SVG Export Plug-In . SVG Version: 6.00 Build 0)  -->
<svg version="1.1" id="圖層_1" xmlns="http://www.w3.org/2000/svg" xmlns:xlink="http://www.w3.org/1999/xlink" x="0px" y="0px"
	 viewBox="0 0 50 12" style="enable-background:new 0 0 50 12;" xml:space="preserve">
<style type="text/css">
	.st0{fill:#EE7D18;}
	.st1{fill:#3F3B3C;}
</style>
<g>
	<path class="st0" d="M3.9,10.3c-0.1,0-0.2,0-0.2-0.1c-0.1-0.1-0.1-0.1-0.1-0.2V2.2c0-0.1,0-0.1,0.1-0.2s0.1-0.1,0.2-0.1h1.4
		c0.1,0,0.2,0,0.2,0.1s0.1,0.1,0.1,0.2v0.1c0,0.1,0,0.2-0.1,0.2C5.5,2.6,5.4,2.6,5.3,2.6H4.6c0,0,0,0,0,0v6.9c0,0,0,0,0,0h0.7
		c0.1,0,0.2,0,0.2,0.1s0.1,0.1,0.1,0.2V10c0,0.1,0,0.2-0.1,0.2c-0.1,0.1-0.1,0.1-0.2,0.1H3.9z"/>
	<path class="st1" d="M9.1,8.8c-0.1,0-0.2,0-0.2-0.1S8.8,8.6,8.8,8.5V2.8c0-0.1,0-0.2,0.1-0.2S9,2.5,9.1,2.5h0.7
		c0.1,0,0.2,0,0.2,0.1S10,2.7,10,2.8v2.4c0,0,0,0,0,0s0,0,0,0L12,2.7c0.1-0.2,0.3-0.2,0.5-0.2h0.8c0.1,0,0.1,0,0.1,0.1
		c0,0.1,0,0.1,0,0.2l-1.7,2.2c0,0,0,0,0,0.1l2.1,3.6c0,0,0,0.1,0,0.1s0,0.1,0,0.1c0,0.1-0.1,0.1-0.2,0.1h-0.8
		c-0.2,0-0.3-0.1-0.4-0.3L10.9,6c0,0,0,0,0,0L10,7c0,0,0,0,0,0.1v1.4c0,0.1,0,0.2-0.1,0.2S9.8,8.8,9.7,8.8H9.1z"/>
	<path class="st1" d="M15.2,8.9c-0.2,0-0.4-0.1-0.6-0.2s-0.2-0.4-0.2-0.6c0-0.2,0.1-0.4,0.2-0.6c0.1-0.2,0.3-0.2,0.6-0.2
		c0.2,0,0.4,0.1,0.6,0.2C16,7.7,16,7.9,16,8.1c0,0.2-0.1,0.4-0.2,0.6S15.5,8.9,15.2,8.9z"/>
	<path class="st1" d="M17.7,8.8c-0.1,0-0.2,0-0.2-0.1s-0.1-0.1-0.1-0.2V2.8c0-0.1,0-0.2,0.1-0.2s0.1-0.1,0.2-0.1h0.7
		c0.1,0,0.2,0,0.2,0.1s0.1,0.1,0.1,0.2v5c0,0,0,0,0,0H21c0.1,0,0.2,0,0.2,0.1s0.1,0.1,0.1,0.2v0.5c0,0.1,0,0.2-0.1,0.2
		S21,8.8,21,8.8H17.7z"/>
	<path class="st1" d="M24.6,8.8c-0.1,0-0.2,0-0.2-0.1s-0.1-0.1-0.1-0.2V2.8c0-0.1,0-0.2,0.1-0.2s0.1-0.1,0.2-0.1h1.8
		c1.5,0,2.3,0.5,2.3,1.6c0,0.3-0.1,0.6-0.2,0.8c-0.2,0.3-0.4,0.4-0.6,0.5c0,0,0,0,0,0c0,0,0,0,0,0c0.4,0.1,0.6,0.3,0.9,0.5
		C28.9,6.2,29,6.6,29,7c0,0.6-0.2,1.1-0.7,1.4c-0.5,0.3-1,0.5-1.8,0.5H24.6z M25.6,5C25.6,5,25.6,5.1,25.6,5l0.7,0
		c0.4,0,0.7-0.1,0.9-0.2c0.2-0.1,0.3-0.3,0.3-0.6c0-0.3-0.1-0.5-0.3-0.6c-0.2-0.1-0.5-0.2-0.9-0.2h-0.7c0,0,0,0,0,0V5z M25.6,7.8
		C25.6,7.8,25.6,7.8,25.6,7.8l0.9,0c0.9,0,1.3-0.3,1.3-1c0-0.3-0.1-0.5-0.3-0.7c-0.2-0.1-0.6-0.2-1-0.2h-0.8c0,0,0,0,0,0V7.8z"/>
	<path class="st1" d="M31.2,8.9c-0.4,0-0.7-0.1-0.9-0.4S30,8,30,7.5V2.3c0-0.1,0-0.1,0.1-0.2S30.3,2,30.3,2H31c0.1,0,0.2,0,0.2,0.1
		c0.1,0.1,0.1,0.1,0.1,0.2v5.3c0,0.2,0.1,0.3,0.2,0.4c0,0,0,0,0.1,0s0.1,0,0.1,0.1c0,0,0,0,0.1,0.1c0,0,0.1,0,0.1,0.1
		c0,0,0,0.1,0,0.1l0.1,0.4c0,0,0,0,0,0.1c0,0.1,0,0.1,0,0.2c0,0.1-0.1,0.1-0.2,0.1C31.5,8.9,31.4,8.9,31.2,8.9z"/>
	<path class="st1" d="M35.6,8.8c-0.3,0.1-0.6,0.2-0.9,0.2s-0.6-0.1-0.9-0.2c-0.3-0.1-0.5-0.3-0.7-0.5c-0.2-0.2-0.4-0.5-0.5-0.8
		c-0.1-0.3-0.2-0.7-0.2-1.1c0-0.4,0.1-0.7,0.2-1.1c0.1-0.3,0.3-0.6,0.5-0.8c0.2-0.2,0.5-0.4,0.7-0.5c0.3-0.1,0.6-0.2,0.9-0.2
		s0.6,0.1,0.9,0.2c0.3,0.1,0.5,0.3,0.7,0.5c0.2,0.2,0.4,0.5,0.5,0.8C37,5.7,37.1,6,37.1,6.4c0,0.4-0.1,0.7-0.2,1.1
		c-0.1,0.3-0.3,0.6-0.5,0.8C36.1,8.5,35.9,8.7,35.6,8.8z M34,7.5c0.2,0.3,0.4,0.4,0.8,0.4s0.6-0.1,0.8-0.4c0.2-0.3,0.3-0.6,0.3-1.1
		s-0.1-0.8-0.3-1.1s-0.4-0.4-0.8-0.4S34.2,5.1,34,5.3S33.7,6,33.7,6.4S33.8,7.3,34,7.5z"/>
	<path class="st1" d="M39.8,10.9c-0.6,0-1.1-0.1-1.5-0.3c-0.4-0.2-0.6-0.5-0.6-0.9c0-0.4,0.2-0.7,0.7-1c0,0,0,0,0,0c0,0,0,0,0,0
		C38.2,8.5,38,8.2,38,7.9c0-0.2,0-0.3,0.1-0.5c0.1-0.2,0.2-0.3,0.4-0.4c0,0,0,0,0,0s0,0,0,0c-0.2-0.1-0.3-0.3-0.4-0.5
		s-0.2-0.5-0.2-0.7c0-0.5,0.2-1,0.6-1.3s0.8-0.5,1.4-0.5c0.2,0,0.5,0,0.7,0.1c0,0,0,0,0.1,0H42c0.1,0,0.2,0,0.2,0.1
		c0.1,0.1,0.1,0.1,0.1,0.2v0.3c0,0.1,0,0.1-0.1,0.2S42.1,5,42,5h-0.5c0,0,0,0,0,0c0.1,0.2,0.2,0.4,0.2,0.7c0,0.5-0.2,0.9-0.5,1.2
		c-0.3,0.3-0.8,0.4-1.3,0.4c-0.2,0-0.4,0-0.6-0.1c0,0,0,0-0.1,0c-0.1,0.1-0.2,0.2-0.2,0.4c0,0.1,0.1,0.2,0.2,0.3
		C39.3,8,39.5,8,39.8,8h0.8c0.6,0,1,0.1,1.3,0.3s0.4,0.5,0.4,0.9c0,0.5-0.2,0.9-0.7,1.2S40.6,10.9,39.8,10.9z M40,10.1
		c0.4,0,0.6-0.1,0.9-0.2c0.2-0.1,0.3-0.3,0.3-0.5c0-0.2-0.1-0.3-0.2-0.3C40.9,9,40.7,9,40.4,9h-0.6c-0.3,0-0.5,0-0.6-0.1
		c0,0,0,0,0,0c0,0,0,0-0.1,0c-0.2,0.2-0.3,0.3-0.3,0.5c0,0.2,0.1,0.4,0.3,0.5C39.4,10.1,39.6,10.1,40,10.1z M39.3,6.3
		c0.1,0.2,0.3,0.2,0.5,0.2s0.4-0.1,0.5-0.2s0.2-0.4,0.2-0.6c0-0.3-0.1-0.5-0.2-0.6c-0.1-0.2-0.3-0.2-0.5-0.2S39.5,4.9,39.3,5
		c-0.1,0.2-0.2,0.4-0.2,0.6C39.1,5.9,39.2,6.2,39.3,6.3z"/>
	<path class="st0" d="M45.2,10.3c-0.1,0-0.2,0-0.2-0.1c-0.1-0.1-0.1-0.1-0.1-0.2V9.9c0-0.1,0-0.2,0.1-0.2c0.1-0.1,0.1-0.1,0.2-0.1
		h0.7c0,0,0,0,0,0V2.7c0,0,0,0,0,0h-0.7c-0.1,0-0.2,0-0.2-0.1c-0.1-0.1-0.1-0.1-0.1-0.2V2.2c0-0.1,0-0.1,0.1-0.2
		c0.1-0.1,0.1-0.1,0.2-0.1h1.4c0.1,0,0.2,0,0.2,0.1s0.1,0.1,0.1,0.2V10c0,0.1,0,0.2-0.1,0.2c-0.1,0.1-0.1,0.1-0.2,0.1H45.2z"/>
</g>
</svg>
